<?xml version="1.0" standalone="no"?>
<!DOCTYPE svg PUBLIC "-//W3C//DTD SVG 20010904//EN"
 "http://www.w3.org/TR/2001/REC-SVG-20010904/DTD/svg10.dtd">
<svg version="1.0" xmlns="http://www.w3.org/2000/svg"
 width="150.000000pt" height="150.000000pt" viewBox="0 0 150.000000 150.000000"
 preserveAspectRatio="xMidYMid meet">
<metadata>
Created by potrace 1.11, written by Peter Selinger 2001-2013
</metadata>
<g transform="translate(0.000000,150.000000) scale(0.100000,-0.100000)"
fill="#000000" stroke="none">
<path d="M311 1368 c-252 -96 -235 -451 24 -528 l40 -12 0 -291 c-1 -168 3
-301 8 -314 18 -42 81 -41 96 0 5 12 9 105 9 206 1 101 5 188 10 193 13 13
157 34 227 33 88 -1 176 -23 258 -64 l72 -36 2 -150 c2 -82 5 -160 8 -173 6
-26 49 -46 81 -38 39 10 43 46 43 356 0 209 3 296 11 298 24 8 70 69 77 102 7
38 9 278 2 284 -2 3 -28 -17 -57 -44 -48 -46 -54 -49 -79 -39 -17 6 -57 8 -98
5 l-70 -6 -44 46 c-23 25 -46 43 -49 40 -3 -4 -5 -60 -5 -127 1 -108 -1 -120
-16 -113 -46 19 -123 33 -181 32 -82 -1 -146 -19 -237 -69 -79 -43 -96 -42
-174 7 -86 54 -92 191 -11 277 39 41 72 56 137 60 57 4 75 16 75 48 0 43 -70
51 -159 17z"/>
</g>
</svg>
